<?xml version="1.0" encoding="UTF-8"?>
<svg width="32px" height="32px" viewBox="0 0 32 32" version="1.1" xmlns="http://www.w3.org/2000/svg" xmlns:xlink="http://www.w3.org/1999/xlink">
    <g id="Page-1" stroke="none" stroke-width="1" fill="none" fill-rule="evenodd">
        <g id="docker-svgrepo-com" transform="translate(0.000000, 4.000000)" fill="#FFFFFF" fill-rule="nonzero">
            <path d="M31.6847973,8.35406584 C31.5983966,8.28357456 30.7871896,7.65734973 29.079975,7.65734973 C28.6290419,7.65891822 28.1789947,7.69839464 27.7343635,7.77538164 C27.4031606,5.45244817 25.5295446,4.32130908 25.4463439,4.27048978 L24.98714,4 L24.6847374,4.44589831 C24.3069033,5.04532867 24.0309915,5.70605181 23.8687304,6.39998207 C23.5631278,7.72620168 23.7487294,8.97045468 24.406335,10.0360205 C23.6127282,10.4884761 22.3391173,10.5999507 22.0815151,10.6097867 L1.00133458,10.6097867 C0.450654894,10.6106815 0.00396437274,11.0668844 0.00132602194,11.6310905 C-0.0230868266,13.5229525 0.289777286,15.4034893 0.924533927,17.1802294 C1.65094015,19.1310345 2.73094939,20.5687287 4.13576142,21.4474107 C5.7101749,22.4359279 8.27019682,23 11.1694216,23 C12.4798329,23.0047761 13.7870441,22.8818262 15.0750551,22.6375657 C16.865349,22.3000112 18.5881841,21.6589869 20.1726987,20.7408586 C21.4780236,19.9665209 22.6526408,18.9811493 23.6511285,17.8228476 C25.3215428,15.8851571 26.3167513,13.7294355 27.0559577,11.8114171 L27.3503602,11.8114171 C29.1791758,11.8114171 30.3039855,11.0622423 30.9231908,10.4327388 C31.3359943,10.0327418 31.6575971,9.54422088 31.8655988,9.00324132 L32,8.60980163 L31.6847973,8.35406584 L31.6847973,8.35406584 Z" id="Path"></path>
            <path d="M3.24629616,9.99998991 L6.06910607,9.99998991 C6.20513169,9.99998991 6.31540747,9.89237624 6.31540747,9.75962805 L6.31540747,7.30606411 C6.31582778,7.24231578 6.29028604,7.18101358 6.24439618,7.13564399 C6.19850633,7.0902744 6.13602763,7.06455406 6.0707054,7.06414146 L3.24629616,7.06414146 C3.11027055,7.06414146 3,7.17175513 3,7.30450332 L3,9.76118884 C3,9.89229531 3.11035348,9.99998991 3.24629616,9.99998991 M7.13745566,9.99998991 L9.96026557,9.99998991 C10.0962912,9.99998991 10.2065827,9.89237624 10.2065827,9.75962805 L10.2065827,7.30606411 C10.2074174,7.24219101 10.1820151,7.180646 10.1360325,7.13518469 C10.0900499,7.08972338 10.0273206,7.06413635 9.9618649,7.06413635 L7.13745566,7.06413635 C7.07157906,7.06372262 7.0082762,7.08907631 6.96169342,7.13453672 C6.91511064,7.17999712 6.889131,7.24177475 6.88955494,7.30606411 L6.88955494,9.76118884 C6.8911595,9.89229531 7.00151297,9.99998991 7.13745566,9.99998991 M11.0877902,9.99998991 L13.9106001,9.99998991 C14.0466257,9.99998991 14.1569015,9.89237624 14.1569015,9.75962805 L14.1569015,7.30606411 C14.1573218,7.24231578 14.1317801,7.18101358 14.0858902,7.13564399 C14.0400004,7.0902744 13.9775217,7.06455406 13.9121994,7.06414146 L11.0877902,7.06414146 C10.9517646,7.06414146 10.841494,7.17175513 10.841494,7.30450332 L10.841494,9.76118884 C10.841494,9.89229531 10.9518475,9.99998991 11.0877902,9.99998991 M14.990145,9.99998991 L17.8129549,9.99998991 C17.9492416,9.99998991 18.0599711,9.89262831 18.0608556,9.75962805 L18.0608556,7.30606411 C18.0612796,7.24177475 18.0352999,7.17999712 17.9887171,7.13453672 C17.9421344,7.08907631 17.8788315,7.06372262 17.8129549,7.06413635 L14.990145,7.06413635 C14.8541194,7.06413635 14.7438488,7.17175513 14.7438488,7.30450332 L14.7438488,9.76118884 C14.7438488,9.89229531 14.8542023,9.99998991 14.990145,9.99998991 M7.13745566,6.46947997 L9.96026557,6.46947997 C10.0962083,6.46947997 10.2065617,6.36022458 10.2065617,6.22755732 L10.2065617,3.77399338 C10.2065617,3.64124519 10.0962912,3.53363152 9.96026557,3.53363152 L7.13745566,3.53363152 C7.00116891,3.53363152 6.89043944,3.64099312 6.88956017,3.77399338 L6.88956017,6.22911811 C6.8911595,6.36022458 7.00151297,6.46947997 7.13745566,6.46947997 M11.0877902,6.46947997 L13.9106001,6.46947997 C14.0465428,6.46947997 14.1568963,6.36022458 14.1568963,6.22755732 L14.1568963,3.77399338 C14.1568963,3.64124519 14.0466257,3.53363152 13.9106001,3.53363152 L11.0877902,3.53363152 C10.9517646,3.53363152 10.841494,3.64124519 10.841494,3.77399338 L10.841494,6.22911811 C10.841494,6.36022458 10.9518475,6.46947997 11.0877902,6.46947997 M14.990145,6.46947997 L17.8129549,6.46947997 C17.9488976,6.46947997 18.0608504,6.36022458 18.0608504,6.22755732 L18.0608504,3.77399338 C18.0599711,3.64099312 17.9492416,3.53363152 17.8129549,3.53363152 L14.990145,3.53363152 C14.8541194,3.53363152 14.7438488,3.64124519 14.7438488,3.77399338 L14.7438488,6.22911811 C14.7438488,6.36022458 14.8542023,6.46947997 14.990145,6.46947997 M14.990145,2.93740924 L17.8129549,2.93740924 C17.9492416,2.93740924 18.0599711,2.83004764 18.0608504,2.69704738 L18.0608504,0.240361861 C18.0599711,0.107361599 17.9492416,0 17.8129549,0 L14.990145,0 C14.8541194,0 14.7438488,0.107613671 14.7438488,0.240361861 L14.7438488,2.69548659 C14.7438488,2.82971464 14.8542023,2.93740924 14.990145,2.93740924 M18.9292843,9.99999502 L21.7520942,9.99999502 C21.8883809,9.99999502 21.9991104,9.89262831 21.9999949,9.75962805 L21.9999949,7.30606411 C22.0004188,7.24177475 21.9744392,7.17999712 21.9278564,7.13453672 C21.8812736,7.08907631 21.8179708,7.06372262 21.7520942,7.06413635 L18.9292843,7.06413635 C18.7932586,7.06413635 18.6829881,7.17175513 18.6829881,7.30450332 L18.6829881,9.76118884 C18.6829881,9.82479417 18.7089866,9.8857719 18.7552227,9.93060092 C18.8014587,9.97542995 18.86411,10.0004056 18.9292843,9.99999502" id="Shape"></path>
        </g>
    </g>
</svg>