<?xml version="1.0" encoding="UTF-8"?>
<svg width="32px" height="32px" viewBox="0 0 32 32" version="1.1" xmlns="http://www.w3.org/2000/svg" xmlns:xlink="http://www.w3.org/1999/xlink">
    <title>Untitled 5</title>
    <g id="Page-1" stroke="none" stroke-width="1" fill="none" fill-rule="evenodd">
        <g id="1vabrq7g3s931" transform="translate(4.000000, 1.000000)" fill="#FFFFFF" fill-rule="nonzero">
            <g id="Group" transform="translate(11.500000, 15.000000) scale(-1, 1) rotate(-180.000000) translate(-11.500000, -15.000000) translate(0.000000, 0.000000)">
                <path d="M8.2056239,29.5884774 L8.2056239,29.1769547 L7.39718805,29.1769547 L6.5887522,29.1769547 L6.5887522,28.744856 L6.5887522,28.3127572 L5.76010545,28.3127572 L4.9314587,28.3127572 L4.9314587,27.9012346 L4.9314587,27.4897119 L4.52724077,27.4897119 L4.12302285,27.4897119 L4.12302285,27.0781893 L4.12302285,26.6666667 L3.69859402,26.6666667 L3.2741652,26.6666667 L3.2741652,26.2345679 L3.2741652,25.8024691 L2.86994728,25.8024691 L2.46572935,25.8024691 L2.46572935,25.3909465 L2.46572935,24.9794239 L2.06151142,24.9794239 L1.6572935,24.9794239 L1.6572935,24.1358025 L1.6572935,23.2921811 L1.23286467,23.2921811 L0.808435852,23.2921811 L0.808435852,22.4691358 L0.808435852,21.6460905 L0.404217926,21.6460905 L0,21.6460905 L0,19.5473251 L0,17.4485597 L0.404217926,17.4485597 L0.808435852,17.4485597 L0.808435852,16.6049383 L0.808435852,15.7613169 L1.23286467,15.7613169 L1.6572935,15.7613169 L1.6572935,14.9382716 L1.6572935,14.1152263 L2.06151142,14.1152263 L2.46572935,14.1152263 L2.46572935,13.6831276 L2.46572935,13.2510288 L2.86994728,13.2510288 L3.2741652,13.2510288 L3.2741652,12.8395062 L3.2741652,12.4279835 L3.69859402,12.4279835 L4.12302285,12.4279835 L4.12302285,12.0164609 L4.12302285,11.6049383 L4.52724077,11.6049383 L4.9314587,11.6049383 L4.9314587,11.1728395 L4.9314587,10.7407407 L5.33567663,10.7407407 L5.73989455,10.7407407 L5.73989455,9.07407407 L5.73989455,7.40740741 L6.16432337,7.40740741 L6.5887522,7.40740741 L6.5887522,6.99588477 L6.5887522,6.58436214 L6.99297012,6.58436214 L7.39718805,6.58436214 L7.39718805,6.15226337 L7.39718805,5.72016461 L7.80140598,5.72016461 L8.2056239,5.72016461 L8.2056239,5.30864198 L8.2056239,4.89711934 L9.03427065,4.89711934 L9.8629174,4.89711934 L9.8629174,4.48559671 L9.8629174,4.07407407 L9.45869947,4.07407407 L9.05448155,4.07407407 L9.05448155,3.64197531 L9.05448155,3.20987654 L9.45869947,3.20987654 L9.8629174,3.20987654 L9.8629174,2.38683128 L9.8629174,1.56378601 L10.2671353,1.56378601 L10.6713533,1.56378601 L10.6713533,1.13168724 L10.6713533,0.699588477 L11.0957821,0.699588477 L11.5202109,0.699588477 L11.5202109,0.349794239 L11.5202109,0 L11.9244288,0 L12.3286467,0 L12.3286467,0.349794239 L12.3286467,0.699588477 L12.7328647,0.699588477 L13.1370826,0.699588477 L13.1370826,1.13168724 L13.1370826,1.56378601 L13.5615114,1.56378601 L13.9859402,1.56378601 L13.9859402,1.97530864 L13.9859402,2.38683128 L14.3901582,2.38683128 L14.7943761,2.38683128 L14.7943761,2.79835391 L14.7943761,3.20987654 L14.3901582,3.20987654 L13.9859402,3.20987654 L13.9859402,3.64197531 L13.9859402,4.07407407 L13.5615114,4.07407407 L13.1370826,4.07407407 L13.1370826,4.48559671 L13.1370826,4.89711934 L14.3699473,4.89711934 L15.602812,4.89711934 L15.602812,4.48559671 L15.602812,4.07407407 L16.0272408,4.07407407 L16.4516696,4.07407407 L16.4516696,4.48559671 L16.4516696,4.89711934 L16.8558875,4.89711934 L17.2601054,4.89711934 L17.2601054,5.30864198 L17.2601054,5.72016461 L17.6643234,5.72016461 L18.0685413,5.72016461 L18.0685413,6.56378601 L18.0685413,7.40740741 L17.6643234,7.40740741 L17.2601054,7.40740741 L17.2601054,7.81893004 L17.2601054,8.23045267 L16.8558875,8.23045267 L16.4516696,8.23045267 L16.4516696,8.66255144 L16.4516696,9.09465021 L15.6230228,9.09465021 L14.7943761,9.09465021 L14.7943761,9.50617284 L14.7943761,9.91769547 L15.6230228,9.91769547 L16.4516696,9.91769547 L16.4516696,10.3292181 L16.4516696,10.7407407 L17.2601054,10.7407407 L18.0685413,10.7407407 L18.0685413,11.1728395 L18.0685413,11.6049383 L18.4929701,11.6049383 L18.9173989,11.6049383 L18.9173989,12.0164609 L18.9173989,12.4279835 L19.3216169,12.4279835 L19.7258348,12.4279835 L19.7258348,12.8395062 L19.7258348,13.2510288 L20.1300527,13.2510288 L20.5342707,13.2510288 L20.5342707,13.6831276 L20.5342707,14.1152263 L20.9586995,14.1152263 L21.3831283,14.1152263 L21.3831283,14.9382716 L21.3831283,15.7613169 L21.7873462,15.7613169 L22.1915641,15.7613169 L22.1915641,16.6049383 L22.1915641,17.4485597 L22.5957821,17.4485597 L23,17.4485597 L23,19.5473251 L23,21.6460905 L22.5957821,21.6460905 L22.1915641,21.6460905 L22.1915641,22.4691358 L22.1915641,23.2921811 L21.7873462,23.2921811 L21.3831283,23.2921811 L21.3831283,24.1358025 L21.3831283,24.9794239 L20.9586995,24.9794239 L20.5342707,24.9794239 L20.5342707,25.3909465 L20.5342707,25.8024691 L20.1300527,25.8024691 L19.7258348,25.8024691 L19.7258348,26.2345679 L19.7258348,26.6666667 L19.3216169,26.6666667 L18.9173989,26.6666667 L18.9173989,27.0781893 L18.9173989,27.4897119 L18.4929701,27.4897119 L18.0685413,27.4897119 L18.0685413,27.9012346 L18.0685413,28.3127572 L17.2601054,28.3127572 L16.4516696,28.3127572 L16.4516696,28.744856 L16.4516696,29.1769547 L15.6230228,29.1769547 L14.7943761,29.1769547 L14.7943761,29.5884774 L14.7943761,30 L11.5,30 L8.2056239,30 L8.2056239,29.5884774 Z M14.7943761,27.9012346 L14.7943761,27.4897119 L15.6230228,27.4897119 L16.4516696,27.4897119 L16.4516696,27.0781893 L16.4516696,26.6666667 L17.2601054,26.6666667 L18.0685413,26.6666667 L18.0685413,26.2345679 L18.0685413,25.8024691 L18.4929701,25.8024691 L18.9173989,25.8024691 L18.9173989,25.3909465 L18.9173989,24.9794239 L19.3216169,24.9794239 L19.7258348,24.9794239 L19.7258348,24.1358025 L19.7258348,23.2921811 L20.1300527,23.2921811 L20.5342707,23.2921811 L20.5342707,22.4691358 L20.5342707,21.6460905 L20.9586995,21.6460905 L21.3831283,21.6460905 L21.3831283,19.5473251 L21.3831283,17.4485597 L20.9586995,17.4485597 L20.5342707,17.4485597 L20.5342707,16.6049383 L20.5342707,15.7613169 L20.1300527,15.7613169 L19.7258348,15.7613169 L19.7258348,14.9382716 L19.7258348,14.1152263 L19.3216169,14.1152263 L18.9173989,14.1152263 L18.9173989,13.6831276 L18.9173989,13.2510288 L18.4929701,13.2510288 L18.0685413,13.2510288 L18.0685413,12.8395062 L18.0685413,12.4279835 L17.2601054,12.4279835 L16.4516696,12.4279835 L16.4516696,12.0164609 L16.4516696,11.6049383 L15.6230228,11.6049383 L14.7943761,11.6049383 L14.7943761,11.1728395 L14.7943761,10.7407407 L11.5,10.7407407 L8.2056239,10.7407407 L8.2056239,11.1728395 L8.2056239,11.6049383 L7.39718805,11.6049383 L6.5887522,11.6049383 L6.5887522,12.0164609 L6.5887522,12.4279835 L5.76010545,12.4279835 L4.9314587,12.4279835 L4.9314587,12.8395062 L4.9314587,13.2510288 L4.52724077,13.2510288 L4.12302285,13.2510288 L4.12302285,13.6831276 L4.12302285,14.1152263 L3.69859402,14.1152263 L3.2741652,14.1152263 L3.2741652,14.9382716 L3.2741652,15.7613169 L2.86994728,15.7613169 L2.46572935,15.7613169 L2.46572935,16.6049383 L2.46572935,17.4485597 L2.06151142,17.4485597 L1.6572935,17.4485597 L1.6572935,19.5473251 L1.6572935,21.6460905 L2.06151142,21.6460905 L2.46572935,21.6460905 L2.46572935,22.4691358 L2.46572935,23.2921811 L2.86994728,23.2921811 L3.2741652,23.2921811 L3.2741652,24.1358025 L3.2741652,24.9794239 L3.69859402,24.9794239 L4.12302285,24.9794239 L4.12302285,25.3909465 L4.12302285,25.8024691 L4.52724077,25.8024691 L4.9314587,25.8024691 L4.9314587,26.2345679 L4.9314587,26.6666667 L5.76010545,26.6666667 L6.5887522,26.6666667 L6.5887522,27.0781893 L6.5887522,27.4897119 L7.39718805,27.4897119 L8.2056239,27.4897119 L8.2056239,27.9012346 L8.2056239,28.3127572 L11.5,28.3127572 L14.7943761,28.3127572 L14.7943761,27.9012346 Z M8.2056239,9.50617284 L8.2056239,9.09465021 L10.6713533,9.09465021 L13.1370826,9.09465021 L13.1370826,8.66255144 L13.1370826,8.23045267 L13.9657293,8.23045267 L14.7943761,8.23045267 L14.7943761,7.81893004 L14.7943761,7.40740741 L15.6230228,7.40740741 L16.4516696,7.40740741 L16.4516696,6.56378601 L16.4516696,5.72016461 L16.0272408,5.72016461 L15.602812,5.72016461 L15.602812,6.15226337 L15.602812,6.58436214 L11.9042179,6.58436214 L8.2056239,6.58436214 L8.2056239,6.99588477 L8.2056239,7.40740741 L7.80140598,7.40740741 L7.39718805,7.40740741 L7.39718805,8.66255144 L7.39718805,9.91769547 L7.80140598,9.91769547 L8.2056239,9.91769547 L8.2056239,9.50617284 Z M12.3286467,3.64197531 L12.3286467,3.20987654 L12.7328647,3.20987654 L13.1370826,3.20987654 L13.1370826,2.79835391 L13.1370826,2.38683128 L12.7328647,2.38683128 L12.3286467,2.38683128 L12.3286467,1.97530864 L12.3286467,1.56378601 L11.9244288,1.56378601 L11.5202109,1.56378601 L11.5202109,2.38683128 L11.5202109,3.20987654 L11.0957821,3.20987654 L10.6713533,3.20987654 L10.6713533,3.64197531 L10.6713533,4.07407407 L11.5,4.07407407 L12.3286467,4.07407407 L12.3286467,3.64197531 Z" id="Shape"></path>
                <path d="M4.12302285,20.3703704 L4.12302285,19.9588477 L3.69859402,19.9588477 L3.2741652,19.9588477 L3.2741652,18.2921811 L3.2741652,16.6255144 L3.69859402,16.6255144 L4.12302285,16.6255144 L4.12302285,16.1934156 L4.12302285,15.7613169 L5.76010545,15.7613169 L7.39718805,15.7613169 L7.39718805,16.1934156 L7.39718805,16.6255144 L7.80140598,16.6255144 L8.2056239,16.6255144 L8.2056239,18.2921811 L8.2056239,19.9588477 L7.80140598,19.9588477 L7.39718805,19.9588477 L7.39718805,20.3703704 L7.39718805,20.781893 L5.76010545,20.781893 L4.12302285,20.781893 L4.12302285,20.3703704 Z M5.73989455,19.1152263 L5.73989455,18.2716049 L4.9314587,18.2716049 L4.12302285,18.2716049 L4.12302285,19.1152263 L4.12302285,19.9588477 L4.9314587,19.9588477 L5.73989455,19.9588477 L5.73989455,19.1152263 Z" id="Shape"></path>
                <path d="M15.602812,20.3703704 L15.602812,19.9588477 L15.198594,19.9588477 L14.7943761,19.9588477 L14.7943761,18.2921811 L14.7943761,16.6255144 L15.198594,16.6255144 L15.602812,16.6255144 L15.602812,16.1934156 L15.602812,15.7613169 L17.2601054,15.7613169 L18.9173989,15.7613169 L18.9173989,16.1934156 L18.9173989,16.6255144 L19.3216169,16.6255144 L19.7258348,16.6255144 L19.7258348,18.2921811 L19.7258348,19.9588477 L19.3216169,19.9588477 L18.9173989,19.9588477 L18.9173989,20.3703704 L18.9173989,20.781893 L17.2601054,20.781893 L15.602812,20.781893 L15.602812,20.3703704 Z M17.2601054,19.1152263 L17.2601054,18.2716049 L16.4314587,18.2716049 L15.602812,18.2716049 L15.602812,19.1152263 L15.602812,19.9588477 L16.4314587,19.9588477 L17.2601054,19.9588477 L17.2601054,19.1152263 Z" id="Shape"></path>
                <path d="M9.8629174,17.8600823 L9.8629174,17.4485597 L9.45869947,17.4485597 L9.05448155,17.4485597 L9.05448155,16.1934156 L9.05448155,14.9382716 L11.5202109,14.9382716 L13.9859402,14.9382716 L13.9859402,16.1934156 L13.9859402,17.4485597 L13.5615114,17.4485597 L13.1370826,17.4485597 L13.1370826,17.8600823 L13.1370826,18.2716049 L11.5,18.2716049 L9.8629174,18.2716049 L9.8629174,17.8600823 Z M13.1370826,16.1934156 L13.1370826,15.7613169 L11.5,15.7613169 L9.8629174,15.7613169 L9.8629174,16.1934156 L9.8629174,16.6255144 L11.5,16.6255144 L13.1370826,16.6255144 L13.1370826,16.1934156 Z" id="Shape"></path>
            </g>
        </g>
    </g>
</svg>