<?xml version="1.0" encoding="UTF-8"?>
<svg width="32px" height="32px" viewBox="0 0 32 32" version="1.1" xmlns="http://www.w3.org/2000/svg" xmlns:xlink="http://www.w3.org/1999/xlink">
    <g id="Page-1" stroke="none" stroke-width="1" fill="none" fill-rule="evenodd">
        <g id="kubernetes-svgrepo-com" transform="translate(0.001899, 0.476000)" fill="#FFFFFF" fill-rule="nonzero">
            <path d="M13.6021012,18.66 L13.6131012,18.669 L12.2801012,21.888 C11.0041012,21.071 10.0291012,19.852 9.51510117,18.425 L12.9521012,17.841 L12.9571012,17.846 C13.4141012,17.763 13.7851012,18.226 13.6021012,18.659 L13.6021012,18.66 Z M12.4931012,15.821 C12.9461012,15.696 13.0771012,15.117 12.7221012,14.81 L12.7271012,14.794 L10.1121012,12.455 C9.31510117,13.752 8.97110117,15.283 9.13710117,16.794 L12.4861012,15.83 L12.4931012,15.821 Z M14.0191012,13.18 C14.3991012,13.456 14.9301012,13.196 14.9511012,12.727 L14.9671012,12.722 L15.1641012,9.227 C13.6481012,9.404 12.2371012,10.082 11.1481012,11.155 L14.0131012,13.18 L14.0191012,13.18 Z M15.0341012,16.847 L15.9981012,17.311 L16.9621012,16.847 L17.2011012,15.811 L16.5341012,14.978 L15.4621012,14.978 L14.7951012,15.811 L15.0341012,16.847 Z M17.0341012,12.717 C17.0501012,13.185 17.5861012,13.445 17.9671012,13.164 L17.9761012,13.169 L20.8201012,11.154 C19.7371012,10.091 18.3361012,9.414 16.8311012,9.231 L17.0281012,12.716 L17.0341012,12.717 Z M31.5341012,20.68 L23.8371012,30.253 C23.4301012,30.753 22.8211012,31.045 22.1761012,31.045 L9.82710117,31.05 C9.18210117,31.05 8.56710117,30.758 8.16010117,30.253 L0.463101171,20.68 C0.0621011705,20.18 -0.0888988295,19.524 0.0511011705,18.893 L2.80210117,6.956 C2.94210117,6.327 3.36310117,5.805 3.95310117,5.524 L15.0731012,0.207 C15.6561012,-0.069 16.3381012,-0.069 16.9211012,0.207 L28.0461012,5.519 C28.6301012,5.8 29.0511012,6.327 29.1971012,6.951 L31.9481012,18.894 C32.0881012,19.519 31.9371012,20.175 31.5361012,20.681 L31.5341012,20.68 Z M27.1491012,17.936 C27.0921012,17.925 27.0141012,17.899 26.9571012,17.888 C26.7221012,17.847 26.5341012,17.857 26.3161012,17.841 C25.8531012,17.789 25.4681012,17.753 25.1241012,17.644 C24.9831012,17.592 24.8841012,17.425 24.8371012,17.352 L24.5661012,17.273 C24.7111012,16.237 24.6651012,15.185 24.4251012,14.164 C24.1921012,13.139 23.7691012,12.16 23.1811012,11.284 C23.2491012,11.221 23.3781012,11.108 23.4141012,11.071 C23.4251012,10.951 23.4141012,10.827 23.5391012,10.696 C23.8041012,10.445 24.1341012,10.243 24.5281012,9.997 C24.7211012,9.888 24.8931012,9.816 25.0851012,9.674 C25.1281012,9.643 25.1851012,9.591 25.2321012,9.554 C25.5491012,9.305 25.6231012,8.862 25.3931012,8.575 C25.1631012,8.288 24.7211012,8.263 24.4041012,8.512 C24.3571012,8.549 24.2951012,8.596 24.2521012,8.632 C24.0761012,8.788 23.9671012,8.939 23.8151012,9.101 C23.4871012,9.434 23.2111012,9.71 22.9151012,9.908 C22.7901012,9.987 22.5961012,9.96 22.5141012,9.955 L22.2581012,10.138 C20.8011012,8.606 18.8371012,7.654 16.7331012,7.466 L16.7171012,7.169 C16.6291012,7.086 16.5251012,7.013 16.4981012,6.836 C16.4671012,6.477 16.5191012,6.092 16.5771012,5.628 C16.6021012,5.409 16.6541012,5.232 16.6651012,4.993 C16.6651012,4.94 16.6651012,4.862 16.6651012,4.805 C16.6651012,4.398 16.3621012,4.065 15.9981012,4.065 C15.6291012,4.065 15.3311012,4.398 15.3311012,4.805 L15.3311012,4.826 C15.3311012,4.878 15.3311012,4.945 15.3311012,4.993 C15.3421012,5.232 15.3941012,5.409 15.4191012,5.628 C15.4761012,6.092 15.5241012,6.477 15.4981012,6.836 C15.4571012,6.967 15.3831012,7.087 15.2791012,7.18 L15.2631012,7.461 C13.1431012,7.633 11.1641012,8.581 9.71110117,10.133 C9.62810117,10.076 9.55010117,10.018 9.47110117,9.961 C9.35210117,9.977 9.23210117,10.013 9.07610117,9.925 C8.77910117,9.721 8.50310117,9.445 8.17510117,9.112 C8.02410117,8.951 7.91510117,8.8 7.73810117,8.649 C7.69510117,8.612 7.63410117,8.565 7.59110117,8.529 C7.45610117,8.425 7.29510117,8.362 7.12810117,8.352 C6.91910117,8.341 6.72710117,8.431 6.59610117,8.587 C6.36710117,8.879 6.44010117,9.316 6.75710117,9.571 L6.76810117,9.576 L6.90910117,9.685 C7.09610117,9.826 7.26810117,9.898 7.46110117,10.008 C7.85710117,10.259 8.18510117,10.461 8.45010117,10.707 C8.54910117,10.816 8.57010117,11.008 8.58110117,11.092 L8.79410117,11.279 C7.61710117,13.051 7.13310117,15.186 7.43410117,17.29 L7.15810117,17.369 C7.08510117,17.468 6.98110117,17.613 6.87110117,17.661 C6.52710117,17.77 6.14210117,17.806 5.67910117,17.853 C5.46010117,17.874 5.27210117,17.864 5.03810117,17.905 C4.98610117,17.916 4.91810117,17.937 4.86110117,17.946 L4.85710117,17.951 L4.84610117,17.951 C4.45510117,18.046 4.19910117,18.41 4.28310117,18.764 C4.36010117,19.117 4.74610117,19.336 5.14210117,19.248 L5.15310117,19.248 L5.16410117,19.243 L5.33610117,19.207 C5.56510117,19.144 5.73210117,19.055 5.93510117,18.978 C6.37210117,18.822 6.74310117,18.686 7.09610117,18.634 C7.24310117,18.623 7.40410117,18.727 7.47610117,18.77 L7.76810117,18.722 C8.41910117,20.733 9.78410117,22.442 11.6071012,23.514 L11.4871012,23.806 C11.5341012,23.921 11.5821012,24.071 11.5441012,24.181 C11.4191012,24.52 11.1951012,24.874 10.9451012,25.265 C10.8201012,25.446 10.6941012,25.588 10.5851012,25.796 C10.5601012,25.848 10.5281012,25.927 10.5021012,25.979 C10.3301012,26.343 10.4551012,26.766 10.7831012,26.927 C11.1161012,27.083 11.5271012,26.916 11.7041012,26.547 C11.7311012,26.495 11.7671012,26.427 11.7881012,26.375 C11.8811012,26.162 11.9131012,25.974 11.9801012,25.766 C12.1521012,25.323 12.2511012,24.859 12.4961012,24.567 C12.5641012,24.49 12.6681012,24.458 12.7831012,24.432 L12.9341012,24.156 C14.9091012,24.916 17.0951012,24.921 19.0791012,24.171 L19.2201012,24.427 C19.3351012,24.463 19.4601012,24.484 19.5591012,24.635 C19.7421012,24.942 19.8661012,25.312 20.0181012,25.755 C20.0851012,25.963 20.1171012,26.151 20.2101012,26.364 C20.2311012,26.411 20.2671012,26.484 20.2941012,26.536 C20.4701012,26.905 20.8821012,27.072 21.2101012,26.911 C21.5431012,26.755 21.6691012,26.332 21.4971012,25.963 C21.4701012,25.911 21.4341012,25.838 21.4091012,25.786 C21.3001012,25.578 21.1741012,25.438 21.0541012,25.255 C20.7991012,24.864 20.5901012,24.536 20.4611012,24.198 C20.4091012,24.026 20.4701012,23.922 20.5131012,23.807 C20.4861012,23.776 20.4341012,23.614 20.4041012,23.536 C22.2321012,22.452 23.5961012,20.733 24.2431012,18.708 C24.3261012,18.723 24.4761012,18.749 24.5281012,18.76 C24.6281012,18.692 24.7161012,18.608 24.8991012,18.619 C25.2521012,18.671 25.6231012,18.807 26.0601012,18.963 C26.2631012,19.042 26.4291012,19.13 26.6591012,19.192 C26.7061012,19.208 26.7741012,19.219 26.8311012,19.228 L26.8421012,19.233 L26.8531012,19.233 C27.2491012,19.322 27.6341012,19.104 27.7121012,18.749 C27.7961012,18.394 27.5401012,18.03 27.1491012,17.937 L27.1491012,17.936 Z M21.8621012,12.456 L19.2631012,14.784 L19.2631012,14.795 C18.9101012,15.103 19.0441012,15.68 19.4921012,15.806 L19.4971012,15.817 L22.8661012,16.785 C22.9391012,16.041 22.8931012,15.285 22.7211012,14.556 C22.5541012,13.817 22.2621012,13.104 21.8611012,12.457 L21.8621012,12.456 Z M16.5141012,19.56 C16.4101012,19.363 16.2011012,19.243 15.9771012,19.248 C15.7691012,19.259 15.5771012,19.373 15.4771012,19.56 L13.7851012,22.617 C15.2221012,23.108 16.7851012,23.108 18.2221012,22.617 L16.5291012,19.56 L16.5141012,19.56 Z M19.0291012,17.836 C18.9101012,17.811 18.7851012,17.831 18.6701012,17.884 C18.3891012,18.019 18.2581012,18.357 18.3831012,18.644 L18.3831012,18.649 L19.7271012,21.898 C21.0141012,21.081 21.9921012,19.851 22.5031012,18.414 L19.0341012,17.826 L19.0291012,17.836 Z" id="Shape"></path>
        </g>
    </g>
</svg>