<?xml version="1.0" encoding="UTF-8"?>
<svg width="32px" height="32px" viewBox="0 0 32 32" version="1.1" xmlns="http://www.w3.org/2000/svg" xmlns:xlink="http://www.w3.org/1999/xlink">
    <g id="Page-1" stroke="none" stroke-width="1" fill="none" fill-rule="evenodd">
        <g id="laravel-svgrepo-com" transform="translate(0.460000, 0.000250)" fill="#FFFFFF" fill-rule="nonzero">
            <path d="M31.066,7.23975 C31.076,7.28175 31.082,7.32875 31.082,7.36975 L31.082,14.23975 C31.082,14.41675 30.988,14.58375 30.832,14.67175 L25.066,17.99475 L25.066,24.57275 C25.066,24.74975 24.972,24.91675 24.816,25.00475 L12.78,31.93175 C12.754,31.94775 12.723,31.95775 12.691,31.96775 C12.681,31.97275 12.67,31.97775 12.66,31.98375 C12.577,32.00475 12.488,32.00475 12.405,31.98375 C12.389,31.97875 12.379,31.97375 12.369,31.96775 C12.338,31.95775 12.312,31.94675 12.286,31.93175 L0.255,25.00475 C0.099,24.91575 -9.99200722e-16,24.74975 -9.99200722e-16,24.57275 L-9.99200722e-16,3.96375 C-9.99200722e-16,3.92175 0.01,3.87475 0.021,3.83375 C0.026,3.81775 0.031,3.80775 0.037,3.79175 C0.047,3.76575 0.058,3.73975 0.068,3.71375 C0.073,3.69775 0.089,3.68775 0.099,3.67175 C0.115,3.65075 0.13,3.62975 0.146,3.60875 C0.162,3.59875 0.177,3.58775 0.193,3.57275 C0.214,3.55675 0.229,3.54175 0.25,3.53075 L6.266,0.06675 C6.422,-0.02225 6.615,-0.02225 6.766,0.06675 L12.787,3.53075 C12.808,3.54075 12.823,3.55675 12.839,3.57275 C12.855,3.58275 12.875,3.59875 12.891,3.60875 C12.907,3.62975 12.917,3.64475 12.933,3.67175 C12.943,3.68175 12.959,3.69775 12.969,3.71375 C12.979,3.73975 12.99,3.76575 13,3.79175 C13.005,3.80775 13.016,3.81775 13.016,3.83375 C13.032,3.87575 13.037,3.91675 13.037,3.96375 L13.037,16.83375 L18.047,13.94875 L18.047,7.37075 C18.047,7.32375 18.057,7.28175 18.068,7.24075 C18.073,7.22475 18.078,7.20975 18.084,7.19875 C18.094,7.17275 18.105,7.14675 18.115,7.12075 C18.125,7.09975 18.141,7.08975 18.151,7.07375 C18.167,7.05275 18.177,7.03175 18.193,7.01675 C18.209,7.00175 18.229,6.99075 18.245,6.98075 C18.261,6.96475 18.276,6.94975 18.297,6.93875 L24.318,3.47475 C24.469,3.38075 24.662,3.38075 24.818,3.47475 L30.834,6.93875 C30.855,6.94875 30.87,6.96475 30.891,6.98075 C30.907,6.99075 30.922,7.00175 30.938,7.01675 C30.954,7.03175 30.969,7.05275 30.985,7.07375 C30.995,7.08975 31.011,7.09975 31.016,7.12075 C31.032,7.14675 31.037,7.17275 31.047,7.19875 C31.057,7.20875 31.063,7.22475 31.068,7.24075 L31.066,7.23975 Z M30.076,13.94775 L30.076,8.23975 L27.972,9.44775 L25.066,11.12475 L25.066,16.83275 L30.076,13.94775 Z M24.066,24.28075 L24.066,18.56675 L21.201,20.19675 L13.034,24.86375 L13.034,30.62975 L24.066,24.28075 Z M0.998,4.83275 L0.998,24.28075 L12.029,30.62975 L12.029,24.86375 L6.263,21.59775 C6.242,21.58775 6.227,21.57175 6.211,21.55575 C6.195,21.54575 6.175,21.53475 6.164,21.51975 L6.159,21.51975 C6.143,21.50375 6.133,21.48375 6.117,21.46775 C6.107,21.45175 6.091,21.43675 6.081,21.41575 C6.071,21.39975 6.06,21.37375 6.055,21.35275 C6.045,21.33175 6.034,21.31675 6.029,21.29575 C6.024,21.27475 6.019,21.24875 6.019,21.22275 C6.014,21.20175 6.009,21.18675 6.009,21.16575 L6.009,7.71775 L3.103,6.04075 L0.998,4.83275 Z M6.514,1.07775 L1.504,3.96275 L6.514,6.84775 L11.524,3.96275 L6.514,1.07775 Z M9.123,19.08875 L12.029,17.41175 L12.029,4.83375 L9.925,6.04175 L7.014,7.71875 L7.014,20.29675 L9.123,19.08875 Z M24.566,4.48375 L19.55,7.36875 L24.566,10.25375 L29.576,7.36875 L24.566,4.48375 Z M24.066,11.12475 L19.05,8.23975 L19.05,13.94775 L21.956,15.62475 L24.065,16.83275 L24.066,11.12475 Z M12.53,23.99475 L23.556,17.70275 L18.551,14.81775 L7.53,21.16175 L12.53,23.99475 Z" id="Shape"></path>
        </g>
    </g>
</svg>