<?xml version="1.0" encoding="UTF-8"?>
<svg width="32px" height="32px" viewBox="0 0 32 32" version="1.1" xmlns="http://www.w3.org/2000/svg" xmlns:xlink="http://www.w3.org/1999/xlink">
    <title>Untitled 12</title>
    <g id="Page-1" stroke="none" stroke-width="1" fill="none" fill-rule="evenodd">
        <g id="nextjs" fill="#FFFFFF" fill-rule="nonzero">
            <path d="M9.6,9.6 L10.4647253,8.97546667 C10.1938347,8.60040533 9.71204267,8.44273067 9.27182933,8.58506667 C8.83159467,8.727424 8.53333333,9.137344 8.53333333,9.6 L9.6,9.6 Z M16,29.8666667 C8.34165333,29.8666667 2.13333333,23.6584533 2.13333333,16 L0,16 C0,24.83648 7.16343467,32 16,32 L16,29.8666667 Z M29.8666667,16 C29.8666667,23.6584533 23.6584533,29.8666667 16,29.8666667 L16,32 C24.83648,32 32,24.83648 32,16 L29.8666667,16 Z M16,2.13333333 C23.6584533,2.13333333 29.8666667,8.34165333 29.8666667,16 L32,16 C32,7.16343467 24.83648,0 16,0 L16,2.13333333 Z M16,0 C7.16343467,0 0,7.16343467 0,16 L2.13333333,16 C2.13333333,8.34165333 8.34165333,2.13333333 16,2.13333333 L16,0 Z M10.6666667,25.6 L10.6666667,9.6 L8.53333333,9.6 L8.53333333,25.6 L10.6666667,25.6 Z M8.73527467,10.2245333 L22.6020267,29.4244267 L24.3313067,28.1755733 L10.4647253,8.97546667 L8.73527467,10.2245333 Z M21.3333333,8.53333333 L21.3333333,21.3333333 L23.4666667,21.3333333 L23.4666667,8.53333333 L21.3333333,8.53333333 Z" id="Shape"></path>
        </g>
    </g>
</svg>