<?xml version="1.0" encoding="UTF-8"?>
<svg width="15px" height="15px" viewBox="0 0 15 15" version="1.1" xmlns="http://www.w3.org/2000/svg" xmlns:xlink="http://www.w3.org/1999/xlink">
    <g id="Page-1" stroke="none" stroke-width="1" fill="none" fill-rule="evenodd">
        <g id="nextjs" fill="#FFFFFF" fill-rule="nonzero">
            <path d="M4.5,4.5 L4.90534,4.20725 C4.77836,4.03144 4.55252,3.95753 4.34617,4.02425 C4.13981,4.09098 4,4.28313 4,4.5 L4.5,4.5 Z M7.5,14 C3.91015,14 1,11.0899 1,7.5 L0,7.5 C0,11.6421 3.35786,15 7.5,15 L7.5,14 Z M14,7.5 C14,11.0899 11.0899,14 7.5,14 L7.5,15 C11.6421,15 15,11.6421 15,7.5 L14,7.5 Z M7.5,1 C11.0899,1 14,3.91015 14,7.5 L15,7.5 C15,3.35786 11.6421,0 7.5,0 L7.5,1 Z M7.5,0 C3.35786,0 0,3.35786 0,7.5 L1,7.5 C1,3.91015 3.91015,1 7.5,1 L7.5,0 Z M5,12 L5,4.5 L4,4.5 L4,12 L5,12 Z M4.09466,4.79275 L10.5947,13.7927 L11.4053,13.2073 L4.90534,4.20725 L4.09466,4.79275 Z M10,4 L10,10 L11,10 L11,4 L10,4 Z" id="Shape"></path>
        </g>
    </g>
</svg>