<?xml version="1.0" encoding="UTF-8"?>
<svg width="32px" height="32px" viewBox="0 0 32 32" version="1.1" xmlns="http://www.w3.org/2000/svg" xmlns:xlink="http://www.w3.org/1999/xlink">
    <title>Untitled 5</title>
    <g id="Page-1" stroke="none" stroke-width="1" fill="none" fill-rule="evenodd">
        <g id="react-svgrepo-com" transform="translate(0.000000, 1.763638)" fill="#FFFFFF" fill-rule="nonzero">
            <path d="M16,11.3823622 C14.427,11.3823622 13.146,12.6633622 13.146,14.2363622 C13.146,15.8093622 14.427,17.0903622 16,17.0903622 C17.573,17.0903622 18.854,15.8093622 18.854,14.2363622 C18.854,12.6633622 17.573,11.3823622 16,11.3823622 Z M8.01,19.9083622 L7.38,19.7523622 C2.692,18.5643622 0,16.5543622 0,14.2313622 C0,11.9083622 2.693,9.89836219 7.38,8.71036219 L8.01,8.55436219 L8.187,9.17936219 C8.661,10.8143622 9.27,12.4083622 10.005,13.9503622 L10.14,14.2313622 L10.005,14.5173622 C9.271,16.0533622 8.661,17.6473622 8.187,19.2883622 L8.01,19.9083622 Z M7.089,10.1683622 C3.526,11.1683622 1.339,12.7043622 1.339,14.2313622 C1.339,15.7583622 3.527,17.2883622 7.089,18.2943622 C7.527,16.9033622 8.053,15.5493622 8.667,14.2313622 C8.052,12.9133622 7.526,11.5593622 7.089,10.1683622 L7.089,10.1683622 Z M23.99,19.9083622 L23.813,19.2833622 C23.339,17.6483622 22.73,16.0543622 21.995,14.5173622 L21.86,14.2313622 L21.995,13.9453622 C22.729,12.4093622 23.339,10.8153622 23.813,9.17436219 L23.99,8.55436219 L24.62,8.71036219 C29.308,9.89836219 32,11.9083622 32,14.2313622 C32,16.5543622 29.307,18.5643622 24.62,19.7523622 L23.99,19.9083622 Z M23.333,14.2313622 C23.974,15.6163622 24.505,16.9763622 24.911,18.2943622 C28.479,17.2893622 30.661,15.7583622 30.661,14.2313622 C30.661,12.7043622 28.473,11.1743622 24.911,10.1683622 C24.473,11.5533622 23.947,12.9133622 23.333,14.2313622 L23.333,14.2313622 Z M7.078,10.1633622 L6.901,9.53836219 C5.583,4.89236219 5.984,1.55936219 8,0.397362187 C9.979,-0.743637813 13.151,0.605362187 16.479,4.02236219 L16.932,4.48636219 L16.479,4.95036219 C15.297,6.17936219 14.219,7.50236219 13.25,8.90836219 L13.068,9.16336219 L12.755,9.18936219 C11.052,9.32436219 9.364,9.59536219 7.708,10.0023622 L7.078,10.1633622 Z M9.609,1.32536219 C9.25,1.32536219 8.932,1.39836219 8.666,1.55436219 C7.343,2.32036219 7.109,4.97636219 8.02,8.55936219 C9.442,8.24136219 10.879,8.01736219 12.333,7.88736219 C13.166,6.69936219 14.083,5.56436219 15.067,4.49636219 C12.989,2.47036219 11.02,1.32436219 9.609,1.32436219 L9.609,1.32536219 Z M22.396,28.4703622 C22.391,28.4703622 22.391,28.4703622 22.396,28.4703622 C20.495,28.4703622 18.052,27.0433622 15.521,24.4393622 L15.068,23.9753622 L15.521,23.5113622 C16.703,22.2823622 17.781,20.9593622 18.75,19.5533622 L18.927,19.2983622 L19.24,19.2673622 C20.943,19.1373622 22.631,18.8663622 24.292,18.4543622 L24.922,18.2983622 L25.099,18.9233622 C26.417,23.5693622 26.016,26.8973622 24,28.0583622 C23.51,28.3393622 22.958,28.4803622 22.396,28.4693622 L22.396,28.4703622 Z M16.932,23.9653622 C19.01,25.9913622 20.979,27.1373622 22.39,27.1373622 L22.395,27.1373622 C22.749,27.1373622 23.067,27.0593622 23.333,26.9083622 C24.656,26.1423622 24.896,23.4863622 23.979,19.9033622 C22.557,20.2213622 21.114,20.4453622 19.666,20.5703622 C18.833,21.7633622 17.916,22.8933622 16.932,23.9663622 L16.932,23.9653622 Z M24.922,10.1633622 L24.292,10.0023622 C22.631,9.59636219 20.943,9.32536219 19.24,9.18936219 L18.927,9.16336219 L18.75,8.90836219 C17.781,7.50236219 16.703,6.17936219 15.521,4.95036219 L15.068,4.48636219 L15.521,4.02236219 C18.849,0.605362187 22.021,-0.743637813 24,0.397362187 C26.016,1.55836219 26.417,4.89236219 25.099,9.53836219 L24.922,10.1633622 Z M19.667,7.88736219 C21.188,8.02836219 22.636,8.25236219 23.98,8.55936219 C24.897,4.97636219 24.657,2.31936219 23.334,1.55436219 C22.016,0.794362187 19.537,1.96036219 16.933,4.49736219 C17.917,5.57036219 18.829,6.70036219 19.667,7.88836219 L19.667,7.88736219 Z M9.609,28.4703622 C9.046,28.4803622 8.489,28.3403622 8,28.0593622 C5.984,26.8983622 5.583,23.5693622 6.901,18.9243622 L7.078,18.2993622 L7.708,18.4553622 C9.25,18.8463622 10.948,19.1163622 12.755,19.2683622 L13.068,19.2993622 L13.245,19.5543622 C14.214,20.9603622 15.292,22.2833622 16.474,23.5123622 L16.927,23.9763622 L16.474,24.4403622 C13.948,27.0443622 11.505,28.4713622 9.609,28.4713622 L9.609,28.4703622 Z M8.021,19.9033622 C7.104,23.4863622 7.344,26.1433622 8.667,26.9083622 C9.985,27.6583622 12.459,26.5023622 15.068,23.9653622 C14.084,22.8923622 13.167,21.7623622 12.334,20.5693622 C10.881,20.4443622 9.443,20.2203622 8.021,19.9023622 L8.021,19.9033622 Z M16,20.7413622 C14.901,20.7413622 13.776,20.6943622 12.646,20.6003622 L12.333,20.5743622 L12.151,20.3143622 C11.516,19.3973622 10.911,18.4553622 10.354,17.4863622 C9.791,16.5173622 9.276,15.5283622 8.797,14.5173622 L8.662,14.2313622 L8.797,13.9453622 C9.276,12.9353622 9.792,11.9453622 10.354,10.9763622 C10.906,10.0233622 11.51,9.07036219 12.151,8.14836219 L12.333,7.88836219 L12.646,7.86236219 C14.88,7.67436219 17.125,7.67436219 19.354,7.86236219 L19.667,7.88836219 L19.849,8.14836219 C21.125,9.98136219 22.25,11.9243622 23.203,13.9453622 L23.338,14.2313622 L23.203,14.5173622 C22.25,16.5383622 21.13,18.4813622 19.849,20.3143622 L19.667,20.5743622 L19.354,20.6003622 C18.229,20.6943622 17.099,20.7413622 16,20.7413622 Z M13.073,19.2933622 C15.042,19.4443622 16.958,19.4443622 18.932,19.2933622 C20.031,17.6843622 21.01,15.9913622 21.859,14.2303622 C21.015,12.4703622 20.036,10.7773622 18.927,9.16736219 C16.979,9.01636219 15.021,9.01636219 13.073,9.16736219 C11.964,10.7763622 10.984,12.4693622 10.141,14.2303622 C10.99,15.9903622 11.969,17.6833622 13.073,19.2933622 L13.073,19.2933622 Z" id="Shape"></path>
        </g>
    </g>
</svg>