<?xml version="1.0" encoding="UTF-8"?>
<svg width="38px" height="38px" viewBox="0 0 38 38" version="1.1" xmlns="http://www.w3.org/2000/svg" xmlns:xlink="http://www.w3.org/1999/xlink">
    <title>rust</title>
    <g id="Page-1" stroke="none" stroke-width="1" fill="none" fill-rule="evenodd">
        <g id="rust" fill="#FFFFFF" fill-rule="nonzero">
            <path d="M17.8149266,4.47593218 C17.8149266,4.07244562 18.0302303,3.69960865 18.3797351,3.49786536 C18.7292398,3.29612207 19.1598473,3.29612207 19.509352,3.49786536 C19.8588567,3.69960865 20.0741605,4.07244562 20.0741605,4.47593218 C20.0741605,5.09966833 19.5684137,5.60530637 18.9445435,5.60530637 C18.3206733,5.60530637 17.8149266,5.09966833 17.8149266,4.47593218 M4.33791918,14.7008661 C4.33791918,14.07713 4.84366592,13.5714919 5.46753614,13.5714919 C6.09140636,13.5714919 6.5971531,14.07713 6.5971531,14.7008661 C6.5971531,15.3246023 6.09140636,15.8302404 5.46753614,15.8302404 C4.84366592,15.8302404 4.33791918,15.3246023 4.33791918,14.7008661 M31.291934,14.753119 C31.291934,14.1293828 31.7976807,13.6237448 32.4215509,13.6237448 C33.0454212,13.6237448 33.5511679,14.1293828 33.5511679,14.753119 C33.5511679,15.3768552 33.0454212,15.8824932 32.4215509,15.8824932 C31.7976807,15.8824932 31.291934,15.3768552 31.291934,14.753119 M7.60680023,16.3040788 C8.1264622,16.0720421 8.36065288,15.4635957 8.13062891,14.9431294 L7.62936881,13.8101924 L9.60115026,13.8101924 L9.60115026,22.693178 L5.62314058,22.693178 C5.13230318,20.9692479 4.97943731,19.1667054 5.17295675,17.3847629 L7.60680023,16.3040788 Z M15.8526477,16.5225907 L15.8526477,13.9040101 L20.5469129,13.9040101 C20.7892282,13.9040101 22.2573739,14.1842754 22.2573739,15.2815854 C22.2573739,16.1936352 21.1289448,16.5214032 20.2024451,16.5214032 L15.8526477,16.5225907 Z M9.44317018,30.6201739 C9.44317018,30.2166873 9.65847393,29.8438503 10.0079786,29.6421071 C10.3574834,29.4403638 10.7880909,29.4403638 11.1375956,29.6421071 C11.4871003,29.8438503 11.7024041,30.2166873 11.7024041,30.6201739 C11.7024041,31.24391 11.1966574,31.7495481 10.5727871,31.7495481 C9.94891692,31.7495481 9.44317018,31.24391 9.44317018,30.6201739 M26.1831195,30.6724267 C26.1831195,30.0486906 26.6888663,29.5430525 27.3127365,29.5430525 C27.9366067,29.5430525 28.4423535,30.0486906 28.4423535,30.6724267 C28.4423535,31.2961629 27.9366067,31.801801 27.3127365,31.801801 C26.6888663,31.801801 26.1831195,31.2961629 26.1831195,30.6724267 M26.5323387,28.1108492 C25.9740632,27.9920927 25.4276659,28.3459871 25.3088839,28.902955 L24.7422937,31.5488496 C21.0522705,33.2197816 16.8169944,33.1994011 13.1432299,31.4930341 L12.5766397,28.8471395 C12.4578577,28.2889839 11.9114604,27.9350896 11.353185,28.0550337 L9.01674275,28.556186 C8.58262085,28.1091486 8.17904042,27.6334466 7.80872965,27.1322957 L19.1761685,27.1322957 C19.304453,27.1322957 19.3899761,27.1085444 19.3899761,26.9921631 L19.3899761,22.9722558 C19.3899761,22.8534993 19.304453,22.8321231 19.1761685,22.8321231 L15.8502721,22.8321231 L15.8502721,20.2836088 L19.4458036,20.2836088 C19.773642,20.2836088 21.200214,20.378614 21.6575248,22.2003386 L22.3286431,25.1692509 C22.5424508,25.8224116 23.4131229,27.1322957 24.3396227,27.1322957 L30.2074542,27.1322957 C29.8136428,27.6589316 29.3829673,28.1569792 28.9186693,28.6226897 L26.5323387,28.1108492 Z M32.8444149,17.496394 C32.9243064,18.2987843 32.9342424,19.1066015 32.8741104,19.9107134 L31.4487262,19.9107134 C31.3061878,19.9107134 31.2467968,20.0057186 31.2467968,20.1446637 L31.2467968,20.8001996 C31.2467968,22.344034 30.3773125,22.6765521 29.6147319,22.7632444 C28.8901616,22.8463739 28.0824439,22.4592278 27.9850427,22.0150785 C27.5574274,19.6066968 26.8447354,19.0936688 25.7281844,18.2029951 C27.1262487,17.3146965 28.5813284,16.006 28.5813284,14.2519666 C28.5813284,12.3589881 27.283041,11.1666729 26.398115,10.582391 C25.1568429,9.7629712 23.782535,9.60027481 23.4119351,9.60027481 L8.64139158,9.60027481 C10.6816654,7.32104206 13.416639,5.7779151 16.4228014,5.2098473 L18.1629579,7.03513458 C18.5549385,7.44721961 19.2082396,7.46265795 19.6192254,7.0683864 L21.5672504,5.20747217 C25.5834494,5.95931574 29.0658596,8.43864816 31.0900046,11.9872803 L29.7572704,14.9965698 C29.5272464,15.5170362 29.7614371,16.1254825 30.281099,16.3575192 L32.8444149,17.496394 Z M36.1679357,17.5438966 L36.1227985,17.0783711 L37.4959186,15.7981761 C37.7750564,15.5369118 37.6705282,15.0143833 37.3141821,14.881376 L35.5597718,14.2258402 L35.4219846,13.7745655 L36.5147792,12.2544824 C36.7380894,11.9457155 36.5325965,11.4528761 36.1584331,11.3911227 L34.3078093,11.0906688 L34.085687,10.6750211 L34.8637092,8.96849027 C35.0228771,8.62053375 34.7271099,8.17638447 34.3446318,8.19063525 L32.4678759,8.25595132 L32.1709209,7.89611915 L32.6020996,6.06726917 C32.6888105,5.69556135 32.3122715,5.31910327 31.9404838,5.40579551 L30.1112408,5.83688158 L29.7501434,5.53999035 L29.8154735,3.66363778 C29.8297274,3.283617 29.3854826,2.98672577 29.0386392,3.14467191 L27.3329294,3.92252693 L26.9171924,3.69926472 L26.6154861,1.84903858 C26.5560951,1.47376806 26.0607741,1.2695069 25.7519408,1.4927691 L24.231531,2.58532883 L23.7801594,2.44875886 L23.1244826,0.694725478 C22.9914468,0.338456002 22.4676181,0.233950289 22.2074855,0.51184048 L20.9270154,1.88466553 L20.4613899,1.83953806 L19.4731235,0.242263244 C19.2735697,-0.0807544145 18.736675,-0.0807544145 18.5383091,0.242263244 L17.5500427,1.83953806 L17.0844172,1.88466553 L15.8015714,0.50946535 C15.540251,0.231575159 15.0176101,0.334893307 14.8845743,0.692350348 L14.2288976,2.44638373 L13.7775259,2.5829537 L12.2571161,1.49039397 C11.9482829,1.26713177 11.4541497,1.4725805 11.3935709,1.84666345 L11.0918645,3.69688959 L10.6761275,3.9201518 L8.97041776,3.14229678 C8.62357428,2.98435064 8.17814172,3.28124187 8.19358338,3.66126265 L8.25891349,5.53761522 L7.89781617,5.83450645 L6.06857314,5.40342038 C5.69678543,5.31672814 5.32024644,5.69318622 5.40695731,6.06489404 L5.83813603,7.89374402 L5.54118099,8.25357619 L3.66442516,8.18826012 C3.28432271,8.17638447 2.98736767,8.61815862 3.14534775,8.96611514 L3.92336995,10.6726459 L3.70005976,11.0882937 L1.84943597,11.3887476 C1.4740848,11.4481258 1.26977974,11.9433404 1.49308993,12.2521073 L2.58588446,13.7721904 L2.44809733,14.223465 L0.693686967,14.8790009 C0.337340922,15.0120081 0.232812749,15.5357243 0.511950484,15.795801 L1.88507058,17.075996 L1.83993341,17.5415214 L0.24231531,18.5295754 C-0.0807717701,18.7290863 -0.0807717701,19.2658657 0.24231531,19.464189 L1.83993341,20.452243 L1.88507058,20.9177685 L0.508387023,22.2027137 C0.230437109,22.463978 0.333777462,22.9865066 0.690123506,23.1195138 L2.44453387,23.7750497 L2.582321,24.2263244 L1.48952647,25.7464074 C1.2674041,26.0551743 1.47170916,26.5492013 1.84587251,26.6097671 L3.69530848,26.9102211 L3.91861867,27.3258688 L3.14059647,29.031212 C2.98261639,29.377981 3.28075925,29.8233178 3.65967388,29.809067 L5.53642971,29.743751 L5.83338475,30.1047707 L5.40220603,31.9336207 C5.31549516,32.3041409 5.69203415,32.6817866 6.06382186,32.5939068 L7.89306489,32.1628207 L8.25416221,32.4597119 L8.1888321,34.3360645 C8.17457826,34.7160853 8.618823,35.0129765 8.96566648,34.8550304 L10.6713762,34.0771754 L11.0871133,34.3004376 L11.3888196,36.1494761 C11.4482106,36.5259342 11.9435316,36.7290078 12.2523648,36.5081207 L13.7727746,35.4131859 L14.2241463,35.5509434 L14.879823,37.3049768 C15.0128589,37.6612463 15.5366875,37.765752 15.7968202,37.4866742 L17.0772903,36.1138492 L17.5429158,36.1613518 L18.5311821,37.7586266 C18.7307359,38.0792691 19.265255,38.0816443 19.4659966,37.7586266 L20.454263,36.1613518 L20.9198885,36.1138492 L22.2003586,37.4866742 C22.461679,37.765752 22.9843199,37.6612463 23.1173557,37.3049768 L23.7730324,35.5509434 L24.2244041,35.4131859 L25.7448139,36.5081207 C26.0536471,36.7301954 26.5477803,36.5259342 26.6083591,36.1494761 L26.9100655,34.3004376 L27.3258025,34.0771754 L29.0315122,34.8550304 C29.3783557,35.0129765 29.8226005,34.7172729 29.8083466,34.3360645 L29.7430165,32.4597119 L30.102926,32.1628207 L31.932169,32.5939068 C32.3039568,32.680599 32.6804957,32.3041409 32.5937849,31.9336207 L32.1626062,30.1047707 L32.4595612,29.743751 L34.336317,29.809067 C34.7164195,29.8245054 35.0133745,29.377981 34.8553944,29.031212 L34.0773722,27.3258688 L34.2994946,26.9102211 L36.1501184,26.6097671 C36.5266574,26.5503889 36.7321503,26.0563619 36.5064644,25.7464074 L35.4136699,24.2263244 L35.551457,23.7750497 L37.3058674,23.1195138 C37.6622134,22.985319 37.7667416,22.4627904 37.4876039,22.2027137 L36.1144838,20.9225187 L36.159621,20.4569933 L37.7572391,19.4689393 C38.0803261,19.2694284 38.081514,18.7350242 37.7572391,18.5343257 L36.1679357,17.5438966 Z" id="Shape"></path>
        </g>
    </g>
</svg>