<?xml version="1.0" encoding="UTF-8"?>
<svg width="32px" height="32px" viewBox="0 0 32 32" version="1.1" xmlns="http://www.w3.org/2000/svg" xmlns:xlink="http://www.w3.org/1999/xlink">
    <g id="Page-1" stroke="none" stroke-width="1" fill="none" fill-rule="evenodd">
        <g id="symfony-svgrepo-com" fill="#FFFFFF" fill-rule="nonzero">
            <path d="M32,16 C32,24.8373333 24.8373333,32 16,32 C7.16266667,32 0,24.8373333 0,16 C0,7.16266667 7.16266667,0 16,0 C24.8373333,0 32,7.16266667 32,16 Z M22.996,5.91866667 C21.3693333,5.97466667 19.952,6.872 18.896,8.11066667 C17.7253333,9.47066667 16.948,11.0826667 16.388,12.7253333 C15.384,11.9066667 14.612,10.84 13.0026667,10.3773333 C11.7146667,9.98133333 10.316,10.2373333 9.252,11.0626667 C8.70533333,11.488 8.30533333,12.072 8.104,12.7346667 C7.624,14.3026667 8.612,15.7013333 9.06266667,16.2013333 L10.0453333,17.2546667 C10.2453333,17.46 10.7373333,18.0013333 10.4973333,18.772 C10.24,19.6133333 9.22933333,20.1546667 8.188,19.8373333 C7.724,19.696 7.05733333,19.3493333 7.20933333,18.864 C7.26933333,18.664 7.412,18.5133333 7.48933333,18.3426667 C7.55866667,18.196 7.592,18.084 7.616,18.02 C7.804,17.4 7.54533333,16.5933333 6.88133333,16.3893333 C6.26133333,16.1986667 5.62933333,16.3493333 5.38133333,17.144 C5.10266667,18.0506667 5.53733333,19.6946667 7.86133333,20.4093333 C10.5813333,21.2466667 12.8813333,19.764 13.2066667,17.8333333 C13.4106667,16.624 12.8666667,15.724 11.8653333,14.5706667 L11.0493333,13.668 C10.5546667,13.1746667 10.3866667,12.332 10.8973333,11.688 C11.3293333,11.1426667 11.944,10.9093333 12.9493333,11.1826667 C14.42,11.5826667 15.0746667,12.6 16.1653333,13.4226667 C15.7146667,14.9026667 15.4186667,16.3866667 15.1533333,17.7186667 L14.9893333,18.7133333 C14.2093333,22.8066667 13.612,25.056 12.064,26.348 C11.752,26.5693333 11.304,26.9026667 10.6333333,26.9266667 C10.2786667,26.9333333 10.164,26.692 10.16,26.584 C10.152,26.3386667 10.36,26.2226667 10.5,26.1133333 C10.7053333,26.0026667 11.02,25.8146667 10.996,25.2146667 C10.9746667,24.5053333 10.388,23.8893333 9.53733333,23.9173333 C8.90133333,23.94 7.93333333,24.5373333 7.96933333,25.632 C8.00666667,26.7653333 9.06133333,27.612 10.652,27.5573333 C11.5026667,27.5293333 13.4013333,27.1826667 15.2706667,24.9586667 C17.448,22.4106667 18.0573333,19.4906667 18.516,17.3506667 L19.0266667,14.5293333 C19.3106667,14.5613333 19.6146667,14.5853333 19.9466667,14.5933333 C22.656,14.652 24.012,13.2466667 24.032,12.2253333 C24.0453333,11.6066667 23.6266667,10.9973333 23.04,11.012 C22.5253333,11.024 22.0826667,11.3826667 21.9653333,11.884 C21.84,12.4546667 22.8266667,12.968 22.056,13.4693333 C21.5093333,13.824 20.528,14.072 19.144,13.8693333 L19.3946667,12.48 C19.9093333,9.84533333 20.54,6.604 22.9426667,6.524 C23.1186667,6.51466667 23.7586667,6.532 23.7733333,6.95466667 C23.7773333,7.09466667 23.744,7.13333333 23.5773333,7.45466667 C23.424,7.66133333 23.3453333,7.91466667 23.3533333,8.17066667 C23.376,8.84266667 23.8866667,9.28533333 24.6293333,9.25866667 C25.62,9.228 25.9026667,8.26133333 25.8893333,7.76666667 C25.8466667,6.60133333 24.62,5.868 22.996,5.91866667 Z" id="Shape"></path>
        </g>
    </g>
</svg>